<?xml version="1.0" standalone="no"?>
<!DOCTYPE svg PUBLIC "-//W3C//DTD SVG 20010904//EN"
 "http://www.w3.org/TR/2001/REC-SVG-20010904/DTD/svg10.dtd">
<svg version="1.0" xmlns="http://www.w3.org/2000/svg"
 width="622.000000pt" height="622.000000pt" viewBox="0 0 622.000000 622.000000"
 preserveAspectRatio="xMidYMid meet">
<metadata>
Created by potrace 1.11, written by Peter Selinger 2001-2013
</metadata>
<g transform="translate(0.000000,622.000000) scale(0.100000,-0.100000)"
fill="#000000" stroke="none">
<path d="M1955 5729 c-276 -21 -547 -99 -851 -245 -172 -82 -311 -180 -445
-313 -216 -215 -322 -425 -349 -699 -8 -72 -10 -423 -8 -1072 l3 -965 23 -80
c30 -105 109 -265 166 -337 86 -108 223 -197 366 -238 104 -30 299 -38 394
-16 370 87 601 362 647 771 5 50 21 511 34 1025 26 1007 27 1011 86 1197 118
368 368 639 723 782 53 21 99 41 102 44 8 8 -21 21 -124 56 -128 44 -302 78
-461 90 -147 12 -147 12 -306 0z"/>
<path d="M3810 5614 c-230 -32 -520 -114 -676 -192 -231 -116 -473 -326 -604
-526 -98 -148 -162 -324 -181 -496 -6 -60 -9 -453 -7 -1060 l3 -965 29 -85
c124 -369 359 -565 717 -599 384 -36 734 174 858 516 62 169 61 144 61 1153
l0 921 36 92 c141 366 441 656 804 778 132 44 260 68 393 76 64 3 117 10 117
15 0 12 -126 92 -235 149 -198 105 -446 184 -684 219 -164 24 -468 26 -631 4z"/>
<path d="M5065 4954 c-147 -33 -267 -96 -373 -197 -114 -109 -198 -258 -247
-438 l-26 -94 -11 -901 c-11 -852 -10 -905 6 -975 91 -375 388 -599 801 -603
144 -1 218 16 350 79 214 103 357 286 420 539 l25 99 0 882 c0 840 -1 885 -19
958 -73 282 -237 496 -458 593 -135 60 -344 86 -468 58z"/>
<path d="M2900 1020 l0 -430 100 0 100 0 0 220 c0 215 0 220 22 231 33 18 95
14 118 -6 19 -17 20 -32 20 -232 l0 -213 101 0 100 0 -3 238 c-3 231 -4 239
-28 287 -34 64 -89 95 -172 95 -58 0 -104 -16 -140 -48 -17 -14 -18 -7 -18
136 l0 152 -100 0 -100 0 0 -430z"/>
<path d="M4560 1304 l0 -145 -32 22 c-23 17 -50 24 -94 27 -156 10 -245 -103
-245 -313 0 -151 46 -251 133 -294 74 -35 175 -26 224 20 l22 20 6 -25 c6 -25
8 -26 96 -26 l90 0 0 430 0 430 -100 0 -100 0 0 -146z m-51 -255 c17 -6 36
-19 41 -29 13 -24 13 -226 0 -250 -16 -29 -73 -44 -107 -28 -42 20 -57 61 -57
153 0 88 19 139 57 155 29 12 29 12 66 -1z"/>
<path d="M2550 1275 l0 -75 -40 0 -40 0 0 -65 0 -65 40 0 40 0 0 -174 c0 -103
5 -187 11 -207 26 -76 82 -109 186 -109 114 0 114 1 111 84 -3 70 -3 71 -29
68 -15 -1 -38 2 -53 8 l-26 10 0 160 0 160 50 0 50 0 0 65 0 65 -50 0 -50 0 0
75 0 75 -100 0 -100 0 0 -75z"/>
<path d="M1165 1193 c-16 -8 -40 -25 -52 -36 l-23 -20 0 31 0 32 -95 0 -95 0
0 -305 0 -305 100 0 100 0 0 213 c0 199 1 215 19 231 26 24 86 25 109 3 15
-15 17 -45 20 -232 l4 -215 94 0 94 0 0 206 c0 115 4 213 10 224 12 22 61 40
92 33 45 -11 48 -24 48 -250 l0 -213 101 0 101 0 -4 243 c-3 237 -4 243 -28
286 -34 61 -68 83 -134 89 -78 6 -119 -4 -169 -42 -42 -32 -44 -33 -56 -14 -6
10 -26 27 -44 38 -40 25 -148 27 -192 3z"/>
<path d="M2035 1186 c-62 -29 -107 -76 -137 -141 -18 -41 -23 -68 -23 -150 0
-90 3 -106 28 -157 50 -103 149 -158 282 -158 89 0 167 26 213 71 35 35 35 38
-21 103 l-34 39 -30 -22 c-80 -60 -216 -37 -236 40 -5 18 3 19 185 19 l191 0
-6 83 c-11 147 -56 229 -151 273 -72 34 -190 34 -261 0z m166 -136 c20 0 49
-42 49 -70 l0 -30 -91 0 c-89 0 -90 0 -84 23 16 54 65 92 103 81 8 -2 18 -4
23 -4z"/>
<path d="M3715 1195 c-127 -47 -194 -187 -174 -360 15 -117 81 -207 178 -240
25 -8 78 -15 120 -15 125 0 212 55 263 165 33 72 33 227 0 300 -28 60 -73 109
-127 138 -52 27 -200 34 -260 12z m174 -159 c42 -33 56 -180 23 -246 -35 -71
-123 -74 -159 -7 -22 41 -24 168 -4 216 23 53 95 73 140 37z"/>
<path d="M4970 1189 c-84 -38 -122 -91 -122 -169 0 -26 7 -61 16 -79 20 -37
93 -87 151 -102 114 -29 145 -41 155 -58 24 -45 -33 -79 -102 -60 -31 8 -43
18 -54 45 l-14 34 -85 0 -85 0 0 -33 c0 -69 83 -154 175 -178 62 -17 202 -7
251 19 121 62 149 201 58 282 -42 37 -62 45 -169 72 -88 21 -121 44 -111 76
17 52 122 45 133 -9 l6 -29 98 0 c96 0 99 1 99 23 -1 68 -65 142 -149 172 -65
23 -195 20 -251 -6z"/>
<path d="M5493 746 c-23 -20 -28 -32 -28 -71 0 -64 35 -95 105 -95 70 0 105
31 105 95 0 64 -35 95 -105 95 -37 0 -56 -6 -77 -24z"/>
</g>
</svg>
