<?xml version="1.0" encoding="UTF-8"?>
<svg width="1064px" height="270px" viewBox="0 0 1064 270" version="1.1" xmlns="http://www.w3.org/2000/svg" xmlns:xlink="http://www.w3.org/1999/xlink">
    <!-- Generator: Sketch 56.3 (81716) - https://sketch.com -->
    <title>Group 5</title>
    <desc>Created with Sketch.</desc>
    <g id="Brand" stroke="none" stroke-width="1" fill="none" fill-rule="evenodd">
        <g id="Artboard-Copy-30" transform="translate(-178.000000, -359.000000)">
            <g id="Group-5" transform="translate(178.000000, 359.000000)">
                <g id="Group-4" transform="translate(1.000000, 0.000000)" fill="#000000" fill-rule="nonzero">
                    <g id="Group-8">
                        <polygon id="Path" points="2.63611355e-12 3.49683016 36.3056851 3.49683016 36.3056851 157.570262 102.062068 157.570262 102.062068 191.064486 2.63611355e-12 191.064486"></polygon>
                        <path d="M237.072476,0.0187555615 C290.858676,-1.05305961 336.845877,43.9631778 335.770153,96.4821214 C336.845877,149.269019 290.858676,194.017302 237.072476,192.945487 C183.017345,194.285256 137.030144,148.733111 138.105868,96.4821214 C137.030144,44.2311316 183.017345,-1.05305961 237.072476,0.0187555615 Z M237.109701,158.647402 C270.995007,158.647402 298.963831,133.995653 298.963831,96.4821214 C298.963831,59.236544 271.8018,34.0488874 237.109701,34.0488874 C202.417602,34.0488874 175.255571,59.236544 175.255571,96.4821214 C175.255571,133.995653 203.224395,158.647402 237.109701,158.647402 Z" id="Combined-Shape"></path>
                        <polygon id="Path" points="403.413757 191.064486 363.571806 3.49683016 401.260138 3.49683016 433.564423 166.948645 467.214719 3.49683016 509.884508 3.49683016 543.534805 166.948645 575.83909 3.49683016 613.527422 3.49683016 573.954673 191.064486 513.384139 191.064486 487.674761 31.1095018 463.984291 191.064486"></polygon>
                        <polygon id="Path" points="688.287817 31.9133632 688.287817 191.064486 651.982132 191.064486 651.982132 3.49683016 714.643055 3.49683016 792.901976 162.647953 792.901976 3.49683016 829.207661 3.49683016 829.207661 191.064486 766.546738 191.064486"></polygon>
                        <path d="M964.216088,0.0187555615 C1018.00229,-1.05305961 1063.98949,43.9631778 1062.91376,96.4821214 C1063.98949,149.269019 1018.00229,194.017302 964.216088,192.945487 C910.160956,194.285256 864.173755,148.733111 865.249479,96.4821214 C864.173755,44.2311316 910.160956,-1.05305961 964.216088,0.0187555615 Z M964.032178,158.647402 C997.917484,158.647402 1025.88631,133.995653 1025.88631,96.4821214 C1025.88631,59.236544 998.724277,34.0488874 964.032178,34.0488874 C929.340079,34.0488874 902.178048,59.236544 902.178048,96.4821214 C902.178048,133.995653 930.146872,158.647402 964.032178,158.647402 Z" id="Combined-Shape"></path>
                    </g>
                </g>
                <rect id="Rectangle-Copy-2" fill="#A7850A" x="-1.74793513e-12" y="249" width="36.8807829" height="5.2173913"></rect>
                <rect id="Rectangle-Copy-2" fill="#A7850A" x="472" y="249" width="36.8807829" height="5.2173913"></rect>
                <g id="Group-2" transform="translate(725.000000, 244.000000)" fill="#A7850A">
                    <rect id="Rectangle-Copy-2" x="0" y="0" width="36.8807829" height="5.2173913"></rect>
                    <rect id="Rectangle-Copy-2" x="0" y="10.4347826" width="36.8807829" height="5.2173913"></rect>
                </g>
                <g id="Group" transform="translate(950.000000, 234.000000)" fill="#A7850A">
                    <rect id="Rectangle-Copy-2" x="0" y="15.6521739" width="36.8807829" height="5.2173913"></rect>
                    <polygon id="Rectangle-Copy-2" transform="translate(18.440391, 18.260870) rotate(90.000000) translate(-18.440391, -18.260870) " points="1.04908711 15.4948108 35.8316958 15.4948108 35.8316958 21.0269283 1.04908711 21.0269283"></polygon>
                </g>
                <g id="Group-3" transform="translate(224.000000, 237.000000)" fill="#A7850A">
                    <polygon id="Rectangle-Copy-2" transform="translate(15.427389, 14.782609) rotate(45.000000) translate(-15.427389, -14.782609) " points="-2.6548937 12.2496011 33.5044192 12.2175635 33.5096712 17.3156163 -2.64964164 17.3476539"></polygon>
                    <polygon id="Rectangle-Copy-2" transform="translate(15.427389, 14.782609) rotate(-45.000000) translate(-15.427389, -14.782609) " points="-2.64964164 12.2175635 33.5096712 12.2496011 33.5044192 17.3476539 -2.6548937 17.3156163"></polygon>
                </g>
            </g>
        </g>
    </g>
</svg>