<svg xmlns="http://www.w3.org/2000/svg" width="622" height="439" viewBox="0 0 622 439">
  <defs>
    <style>
      .cls-1 {
        fill: none;
        stroke: #fff;
        stroke-width: 10px;
        fill-rule: evenodd;
      }
    </style>
  </defs>
  <path id="Vorm_4" data-name="Vorm 4" class="cls-1" d="M285.48,35.643S210.093-3.148,113.26,44.688c0,0-81.526,32.254-82.55,111.239L30.016,337.7s1.966,82.507,83.254,81.173c0,0,69.183-.853,77.01-81.867l4.749-180.938S193.694,64.357,285.48,35.643Z"/>
  <path id="Vorm_4_kopiëren_copy" data-name="Vorm 4 kopiëren copy" class="cls-1" d="M536.422,62.17S448.469-10.392,317.936,41.778c0,0-83.181,36.972-83.254,114.474l-0.693,182.465s6.165,79.935,86.722,78.4c0,0,72.019.395,80.034-78.61V158.473S395.027,69.213,536.422,62.17Z"/>
  <path id="Vorm_4_kopiëren_2" data-name="Vorm 4 kopiëren 2" class="cls-1" d="M518,86s-68.9,1.492-75.876,79.965L440,340s-4.239,80.976,85,75c0,0,72.2,3.515,75.306-75.589L601,168.74S603.776,85.761,518,86Z"/>
</svg>
